<svg width="500" height="250" viewBox="0 0 500 250" fill="none" xmlns="http://www.w3.org/2000/svg">
<rect x="33.582" y="79.8508" width="432.836" height="88.806" rx="7.46269" fill="#3375BB"/>
<path d="M255.35 124.463H258.865V130.015C257.313 131.746 255.164 132.612 252.418 132.612C250.119 132.612 248.186 131.851 246.619 130.328C245.067 128.806 244.291 126.888 244.291 124.575C244.291 122.246 245.082 120.306 246.664 118.754C248.261 117.202 250.179 116.425 252.418 116.425C254.671 116.425 256.627 117.164 258.283 118.642L256.47 121.261C255.768 120.649 255.119 120.231 254.522 120.008C253.94 119.769 253.306 119.649 252.619 119.649C251.291 119.649 250.171 120.105 249.261 121.015C248.35 121.91 247.895 123.097 247.895 124.575C247.895 126.052 248.328 127.239 249.194 128.134C250.074 129.015 251.119 129.455 252.328 129.455C253.537 129.455 254.545 129.224 255.35 128.761V124.463Z" fill="white"/>
<path d="M273.261 116.784V119.896H265.47V123.119H272.477V126.097H265.47V129.343H273.507V132.433H261.977V116.784H273.261Z" fill="white"/>
<path d="M283.253 119.806V132.433H279.76V119.806H275.327V116.784H287.685V119.806H283.253Z" fill="white"/>
<path d="M296.15 116.784H299.642V132.433H296.15V116.784Z" fill="white"/>
<path d="M310.123 119.806V132.433H306.63V119.806H302.197V116.784H314.556V119.806H310.123Z" fill="white"/>
<path d="M333.766 116.784V119.851H326.512V123.231H333.408V126.299H326.512V132.433H323.02V116.784H333.766Z" fill="white"/>
<path d="M348.706 124.53C348.706 123.127 348.258 121.933 347.362 120.948C346.467 119.963 345.362 119.47 344.049 119.47C342.75 119.47 341.653 119.963 340.758 120.948C339.862 121.933 339.415 123.127 339.415 124.53C339.415 125.918 339.862 127.105 340.758 128.09C341.653 129.06 342.75 129.545 344.049 129.545C345.362 129.545 346.467 129.06 347.362 128.09C348.258 127.105 348.706 125.918 348.706 124.53ZM349.892 130.284C348.31 131.821 346.362 132.59 344.049 132.59C341.736 132.59 339.788 131.821 338.206 130.284C336.624 128.731 335.833 126.806 335.833 124.508C335.833 122.209 336.624 120.291 338.206 118.754C339.788 117.202 341.736 116.425 344.049 116.425C346.362 116.425 348.31 117.202 349.892 118.754C351.474 120.291 352.265 122.209 352.265 124.508C352.265 126.806 351.474 128.731 349.892 130.284Z" fill="white"/>
<path d="M367.918 121.978C367.918 124.485 366.926 126.105 364.941 126.836L368.904 132.433H364.605L361.135 127.44H358.717V132.433H355.224V116.784H361.157C363.59 116.784 365.321 117.194 366.351 118.015C367.396 118.836 367.918 120.157 367.918 121.978ZM361.269 124.418C362.463 124.418 363.277 124.224 363.71 123.836C364.142 123.448 364.359 122.836 364.359 122C364.359 121.149 364.135 120.567 363.687 120.254C363.239 119.94 362.456 119.784 361.336 119.784H358.717V124.418H361.269Z" fill="white"/>
<path d="M388.14 116.784V119.851H380.886V123.231H387.782V126.299H380.886V132.433H377.394V116.784H388.14Z" fill="white"/>
<path d="M403.796 121.978C403.796 124.485 402.804 126.105 400.819 126.836L404.781 132.433H400.483L397.013 127.44H394.595V132.433H391.102V116.784H397.035C399.468 116.784 401.199 117.194 402.229 118.015C403.274 118.836 403.796 120.157 403.796 121.978ZM397.147 124.418C398.341 124.418 399.154 124.224 399.587 123.836C400.02 123.448 400.237 122.836 400.237 122C400.237 121.149 400.013 120.567 399.565 120.254C399.117 119.94 398.334 119.784 397.214 119.784H394.595V124.418H397.147Z" fill="white"/>
<path d="M418.652 116.784V119.896H410.861V123.119H417.869V126.097H410.861V129.343H418.898V132.433H407.369V116.784H418.652Z" fill="white"/>
<path d="M433.301 116.784V119.896H425.51V123.119H432.517V126.097H425.51V129.343H433.547V132.433H422.017V116.784H433.301Z" fill="white"/>
<path d="M135.23 117.106H128.997V134.049H124.805V117.106H118.657V113.712H135.23V117.106ZM145.166 126.604H141.826V134.049H137.633V113.712H145.193C147.597 113.712 149.451 114.248 150.755 115.319C152.059 116.389 152.712 117.902 152.712 119.858C152.712 121.245 152.409 122.405 151.803 123.336C151.207 124.258 150.299 124.993 149.078 125.543L153.48 133.853V134.049H148.981L145.166 126.604ZM141.826 123.21H145.207C146.26 123.21 147.076 122.945 147.653 122.414C148.231 121.874 148.519 121.134 148.519 120.193C148.519 119.234 148.244 118.48 147.695 117.93C147.155 117.381 146.321 117.106 145.193 117.106H141.826V123.21ZM171.311 113.712V127.107C171.311 129.333 170.613 131.093 169.215 132.387C167.827 133.681 165.927 134.328 163.514 134.328C161.138 134.328 159.252 133.7 157.854 132.443C156.457 131.186 155.744 129.458 155.716 127.261V113.712H159.909V127.135C159.909 128.467 160.225 129.44 160.858 130.054C161.501 130.66 162.386 130.962 163.514 130.962C165.871 130.962 167.068 129.724 167.105 127.247V113.712H171.311ZM185.3 128.713C185.3 127.922 185.02 127.317 184.461 126.898C183.902 126.469 182.896 126.022 181.443 125.557C179.989 125.082 178.839 124.616 177.991 124.16C175.68 122.912 174.525 121.231 174.525 119.118C174.525 118.019 174.833 117.041 175.448 116.184C176.072 115.319 176.962 114.643 178.117 114.159C179.281 113.675 180.585 113.433 182.029 113.433C183.483 113.433 184.778 113.698 185.914 114.229C187.051 114.75 187.931 115.491 188.555 116.45C189.189 117.409 189.506 118.498 189.506 119.718H185.313C185.313 118.787 185.02 118.065 184.433 117.553C183.846 117.032 183.022 116.771 181.96 116.771C180.935 116.771 180.138 116.99 179.57 117.428C179.002 117.856 178.718 118.424 178.718 119.132C178.718 119.793 179.049 120.347 179.71 120.794C180.381 121.241 181.364 121.66 182.658 122.051C185.043 122.768 186.781 123.657 187.871 124.719C188.961 125.78 189.506 127.102 189.506 128.685C189.506 130.445 188.839 131.828 187.507 132.834C186.175 133.83 184.382 134.328 182.127 134.328C180.562 134.328 179.137 134.044 177.851 133.476C176.566 132.899 175.583 132.112 174.903 131.116C174.232 130.119 173.897 128.965 173.897 127.652H178.103C178.103 129.896 179.444 131.018 182.127 131.018C183.124 131.018 183.902 130.818 184.461 130.417C185.02 130.008 185.3 129.44 185.3 128.713ZM207.672 117.106H201.439V134.049H197.248V117.106H191.099V113.712H207.672V117.106Z" fill="white"/>
<rect x="54.3724" y="98.4174" width="51.6569" height="51.6569" rx="17.8203" fill="white"/>
<path d="M80.406 110.298C85.5329 114.278 91.4122 114.032 93.092 114.032C92.7245 136.667 89.9248 133.651 80.406 139.998C70.8872 133.651 68.105 136.667 67.7376 114.032C69.3999 114.032 75.2791 114.278 80.406 110.298Z" stroke="#3375BB" stroke-width="3.41556" stroke-miterlimit="10" stroke-linecap="round" stroke-linejoin="round"/>
</svg>
