<svg width="500" height="250" viewBox="0 0 500 250" fill="none" xmlns="http://www.w3.org/2000/svg">
<rect x="35.3" y="80.6" width="429.2" height="88.06" rx="7.4" fill="#3375BB"/>
<path d="M135.458 118.283H129.278V135.083H125.121V118.283H119.024V114.917H135.458V118.283ZM145.311 127.701H141.999V135.083H137.842V114.917H145.338C147.721 114.917 149.56 115.448 150.853 116.51C152.146 117.572 152.793 119.072 152.793 121.011C152.793 122.387 152.493 123.536 151.892 124.46C151.301 125.374 150.401 126.103 149.19 126.648L153.555 134.889V135.083H149.093L145.311 127.701ZM141.999 124.335H145.352C146.396 124.335 147.204 124.072 147.777 123.546C148.35 123.01 148.636 122.276 148.636 121.344C148.636 120.393 148.363 119.645 147.819 119.1C147.283 118.555 146.456 118.283 145.338 118.283H141.999V124.335ZM171.237 114.917V128.199C171.237 130.406 170.544 132.151 169.158 133.435C167.782 134.718 165.897 135.36 163.504 135.36C161.149 135.36 159.278 134.737 157.893 133.49C156.507 132.244 155.8 130.531 155.772 128.352V114.917H159.93V128.227C159.93 129.548 160.244 130.512 160.871 131.122C161.509 131.722 162.387 132.022 163.504 132.022C165.842 132.022 167.029 130.794 167.066 128.338V114.917H171.237ZM185.107 129.792C185.107 129.007 184.83 128.407 184.276 127.992C183.722 127.567 182.724 127.124 181.283 126.662C179.842 126.191 178.701 125.729 177.86 125.277C175.569 124.04 174.424 122.373 174.424 120.277C174.424 119.188 174.728 118.218 175.338 117.368C175.957 116.51 176.839 115.84 177.985 115.36C179.139 114.88 180.433 114.64 181.865 114.64C183.306 114.64 184.59 114.903 185.717 115.429C186.844 115.947 187.717 116.681 188.336 117.632C188.964 118.583 189.278 119.663 189.278 120.873H185.121C185.121 119.949 184.83 119.234 184.248 118.726C183.666 118.209 182.849 117.95 181.795 117.95C180.779 117.95 179.989 118.167 179.426 118.601C178.862 119.026 178.581 119.589 178.581 120.291C178.581 120.947 178.909 121.496 179.565 121.939C180.23 122.382 181.204 122.798 182.488 123.186C184.853 123.897 186.576 124.778 187.657 125.831C188.738 126.884 189.278 128.195 189.278 129.765C189.278 131.51 188.617 132.881 187.296 133.878C185.976 134.866 184.197 135.36 181.962 135.36C180.41 135.36 178.997 135.078 177.721 134.515C176.447 133.943 175.472 133.162 174.798 132.174C174.133 131.186 173.8 130.042 173.8 128.74H177.971C177.971 130.965 179.301 132.078 181.962 132.078C182.95 132.078 183.722 131.879 184.276 131.482C184.83 131.076 185.107 130.512 185.107 129.792ZM207.292 118.283H201.112V135.083H196.955V118.283H190.858V114.917H207.292V118.283Z" fill="white"/>
<rect x="55.28" y="99.0106" width="51.223" height="51.223" rx="17.6706" fill="white"/>
<path d="M81.095 110.791C86.1788 114.738 92.0087 114.494 93.6744 114.494C93.31 136.939 90.5339 133.949 81.095 140.242C71.6561 133.949 68.8973 136.939 68.533 114.494C70.1813 114.494 76.0112 114.738 81.095 110.791Z" stroke="#3375BB" stroke-width="3.38687" stroke-miterlimit="10" stroke-linecap="round" stroke-linejoin="round"/>
<path d="M235.833 117.162C238.215 117.162 239.947 117.628 241.027 118.561C242.123 119.478 242.67 120.899 242.67 122.823C242.67 124.732 242.108 126.131 240.983 127.019C239.873 127.907 238.171 128.351 235.877 128.351H233.812V132.68H230.349V117.162H235.833ZM236.143 125.354C237.298 125.354 238.082 125.125 238.497 124.666C238.911 124.192 239.118 123.511 239.118 122.623C239.118 121.721 238.844 121.084 238.297 120.714C237.764 120.329 236.928 120.137 235.788 120.137H233.812V125.354H236.143Z" fill="white"/>
<path d="M255.518 132.68L254.075 129.328H247.571L246.128 132.68H242.443L249.147 117.162H252.499L259.204 132.68H255.518ZM250.834 121.78L248.881 126.286H252.766L250.834 121.78Z" fill="white"/>
<path d="M266.603 132.68H263.139V126.553L257.767 117.162H261.519L264.871 122.934L268.223 117.162H271.975L266.603 126.553V132.68Z" fill="white"/>
<path d="M284.337 126.087L287.09 117.162H290.708L293.439 126.087L296.524 117.162H300.276L294.859 132.68H292.284L288.888 121.891L285.513 132.68H282.938L277.521 117.162H281.273L284.337 126.087Z" fill="white"/>
<path d="M302.109 117.162H305.572V132.68H302.109V117.162Z" fill="white"/>
<path d="M315.965 120.159V132.68H312.501V120.159H308.106V117.162H320.36V120.159H315.965Z" fill="white"/>
<path d="M332.535 117.162H335.998V132.68H332.535V126.575H326.363V132.68H322.9V117.162H326.363V123.645H332.535V117.162Z" fill="white"/>
<path d="M352.79 129.616C354.492 129.616 355.883 128.943 356.963 127.596L359.183 129.883C357.422 131.866 355.343 132.858 352.945 132.858C350.562 132.858 348.594 132.103 347.04 130.593C345.501 129.084 344.731 127.182 344.731 124.888C344.731 122.579 345.516 120.655 347.084 119.116C348.668 117.577 350.599 116.807 352.879 116.807C355.424 116.807 357.555 117.776 359.272 119.715L357.119 122.157C356.024 120.796 354.662 120.115 353.034 120.115C351.732 120.115 350.614 120.544 349.682 121.402C348.764 122.246 348.305 123.393 348.305 124.843C348.305 126.279 348.742 127.433 349.615 128.307C350.488 129.18 351.547 129.616 352.79 129.616Z" fill="white"/>
<path d="M374.511 122.313C374.511 124.799 373.526 126.405 371.558 127.13L375.487 132.68H371.225L367.784 127.729H365.386V132.68H361.923V117.162H367.806C370.219 117.162 371.935 117.569 372.957 118.383C373.993 119.197 374.511 120.507 374.511 122.313ZM367.917 124.732C369.101 124.732 369.908 124.54 370.337 124.155C370.766 123.77 370.981 123.164 370.981 122.335C370.981 121.491 370.759 120.914 370.315 120.603C369.871 120.292 369.094 120.137 367.984 120.137H365.386V124.732H367.917Z" fill="white"/>
<path d="M384.345 132.68H380.882V126.553L375.509 117.162H379.261L382.613 122.934L385.966 117.162H389.717L384.345 126.553V132.68Z" fill="white"/>
<path d="M396.869 117.162C399.252 117.162 400.984 117.628 402.064 118.561C403.159 119.478 403.707 120.899 403.707 122.823C403.707 124.732 403.145 126.131 402.02 127.019C400.91 127.907 399.208 128.351 396.914 128.351H394.849V132.68H391.386V117.162H396.869ZM397.18 125.354C398.335 125.354 399.119 125.125 399.533 124.666C399.948 124.192 400.155 123.511 400.155 122.623C400.155 121.721 399.881 121.084 399.334 120.714C398.801 120.329 397.965 120.137 396.825 120.137H394.849V125.354H397.18Z" fill="white"/>
<path d="M412.981 120.159V132.68H409.518V120.159H405.122V117.162H417.377V120.159H412.981Z" fill="white"/>
<path d="M431.382 124.843C431.382 123.452 430.938 122.268 430.05 121.291C429.162 120.315 428.066 119.826 426.764 119.826C425.476 119.826 424.389 120.315 423.501 121.291C422.613 122.268 422.169 123.452 422.169 124.843C422.169 126.22 422.613 127.396 423.501 128.373C424.389 129.335 425.476 129.816 426.764 129.816C428.066 129.816 429.162 129.335 430.05 128.373C430.938 127.396 431.382 126.22 431.382 124.843ZM432.558 130.549C430.989 132.073 429.058 132.835 426.764 132.835C424.47 132.835 422.539 132.073 420.97 130.549C419.401 129.01 418.617 127.1 418.617 124.821C418.617 122.542 419.401 120.64 420.97 119.116C422.539 117.577 424.47 116.807 426.764 116.807C429.058 116.807 430.989 117.577 432.558 119.116C434.127 120.64 434.911 122.542 434.911 124.821C434.911 127.1 434.127 129.01 432.558 130.549Z" fill="white"/>
</svg>
