<svg width="160" height="50" viewBox="0 0 160 50" fill="none" xmlns="http://www.w3.org/2000/svg">
<g clip-path="url(#clip0)">
<rect x="0.15" y="0.15" width="159.7" height="49.7" rx="4.85" fill="#3375BB" stroke="#DAE6F2" stroke-width="0.3"/>
<rect x="10.25" y="10.25" width="29.5" height="29.5" rx="9.75" fill="white" stroke="#DAE6F2" stroke-width="0.5"/>
<path d="M25.1192 16.8994C28.0966 19.2108 31.5111 19.0682 32.4866 19.0682C32.2732 32.2135 30.6473 30.4621 25.1192 34.1481C19.5911 30.4621 17.9753 32.2135 17.7619 19.0682C18.7273 19.0682 22.1417 19.2108 25.1192 16.8994Z" stroke="#3375BB" stroke-width="2.03636" stroke-miterlimit="10" stroke-linecap="round" stroke-linejoin="round"/>
<path d="M48.793 18.6348C48.8125 19.543 49.4375 20.6318 51.3174 20.6318C52.8604 20.6318 53.915 19.8799 53.915 18.5713C53.915 17.4141 53.1387 16.9404 52.1426 16.7109L51.0684 16.4521C50.458 16.3105 50.1504 16.0127 50.1504 15.5879C50.1504 14.9971 50.6484 14.6455 51.3906 14.6455C52.2305 14.6455 52.6553 15.1045 52.6992 15.6465H53.8223C53.8027 14.4209 52.7432 13.6885 51.4004 13.6885C50.082 13.6885 48.9639 14.3965 48.9639 15.6807C48.9639 16.7744 49.7402 17.292 50.6191 17.4922L51.6885 17.751C52.3916 17.9219 52.7334 18.1807 52.7334 18.6738C52.7334 19.2793 52.2451 19.6699 51.4004 19.6699C50.4775 19.6699 49.9893 19.1914 49.9404 18.6348H48.793ZM58.3088 20.5V14.8359H60.2473V13.835H55.2033V14.8359H57.1369V20.5H58.3088ZM61.7699 20.5L62.3363 18.7031H64.6361L65.2025 20.5H66.4672L64.1967 13.835H62.8539L60.5785 20.5H61.7699ZM63.5131 15.0312L64.3822 17.8047H62.5951L63.4691 15.0312H63.5131ZM73.273 13.835H71.9596L69.3229 16.8916H69.2691V13.835H68.0875V20.5H69.2691V18.2979L69.9967 17.4922L71.9498 20.5H73.3854L70.8658 16.6963L73.273 13.835ZM79.1316 19.5137H76.0994V17.585H78.951V16.6523H76.0994V14.8213H79.1316V13.835H74.9227V20.5H79.1316V19.5137ZM86.1369 20.5L87.4211 15.7002H87.465L88.7492 20.5H89.8283L91.6105 13.835H90.3459L89.2424 18.7275H89.1936L87.9777 13.835H86.9133L85.6926 18.7275H85.6486L84.5402 13.835H83.2756L85.0529 20.5H86.1369ZM94.4711 20.5V13.835H93.2895V20.5H94.4711ZM99.2994 20.5V14.8359H101.238V13.835H96.1939V14.8359H98.1275V20.5H99.2994ZM108.19 20.5V13.835H107.009V16.584H104.04V13.835H102.858V20.5H104.04V17.5801H107.009V20.5H108.19Z" fill="white"/>
<path d="M55.798 28.618V26.728H48.378V28.618H51.024V36.5H53.152V28.618H55.798ZM59.1018 32.916H60.6278L62.3358 36.5H64.7018L62.7838 32.664C63.9738 32.216 64.5618 31.166 64.5618 29.85C64.5618 27.988 63.4138 26.728 61.6078 26.728H56.9738V36.5H59.1018V32.916ZM59.1018 31.124V28.576H61.3418C61.9718 28.576 62.3638 28.912 62.3638 29.542V30.158C62.3638 30.788 61.9718 31.124 61.3418 31.124H59.1018ZM65.88 26.728V32.496C65.88 35.38 66.916 36.668 69.716 36.668C72.516 36.668 73.552 35.38 73.552 32.496V26.728H71.48V32.72C71.48 34.092 70.976 34.778 69.716 34.778C68.456 34.778 67.952 34.092 67.952 32.72V26.728H65.88ZM78.5407 36.668C80.9767 36.668 82.3487 35.366 82.3487 33.49C82.3487 31.81 81.3827 30.914 79.3807 30.592L78.4147 30.438C77.6027 30.312 77.2527 30.06 77.2527 29.388C77.2527 28.8 77.7147 28.436 78.6667 28.436C79.6747 28.436 80.3047 28.814 80.7667 29.36L82.1807 27.932C81.3827 27.05 80.2627 26.56 78.7927 26.56C76.4967 26.56 75.1247 27.778 75.1247 29.528C75.1247 31.166 76.0627 32.174 78.1207 32.44L79.0867 32.566C79.9967 32.692 80.2207 33.084 80.2207 33.616C80.2207 34.33 79.7167 34.792 78.6807 34.792C77.7287 34.792 76.8887 34.414 76.2307 33.672L74.8307 35.086C75.6707 36.01 76.8327 36.668 78.5407 36.668ZM90.2249 28.618V26.728H82.8049V28.618H85.4509V36.5H87.5789V28.618H90.2249ZM98.4053 36.5L99.6373 31.208L100.127 29.066H100.169L100.645 31.208L101.877 36.5H104.299L106.567 26.728H104.551L103.613 31.418L103.095 34.134H103.053L102.451 31.418L101.359 26.728H99.0352L97.9573 31.418L97.3413 34.134H97.2992L96.7812 31.418L95.8572 26.728H93.7572L95.9692 36.5H98.4053ZM115.602 36.5L112.424 26.728H109.792L106.572 36.5H108.728L109.428 34.176H112.69L113.39 36.5H115.602ZM112.172 32.37H109.932L111.01 28.66H111.08L112.172 32.37ZM122.526 36.5V34.61H118.802V26.728H116.674V36.5H122.526ZM129.67 36.5V34.61H125.946V26.728H123.818V36.5H129.67ZM137.612 36.5V34.61H133.09V32.496H136.968V30.62H133.09V28.618H137.612V26.728H130.962V36.5H137.612ZM145.905 28.618V26.728H138.485V28.618H141.131V36.5H143.259V28.618H145.905Z" fill="white"/>
</g>
<defs>
<clipPath id="clip0">
<rect width="160" height="50" fill="white"/>
</clipPath>
</defs>
</svg>
