<svg width="740" height="300" viewBox="0 0 740 300" fill="none" xmlns="http://www.w3.org/2000/svg">
<path d="M518.234 103.368L508.451 113.167L498.667 103.368L508.451 93.5765L518.234 103.368ZM542 79.5903L558.771 96.3752L568.562 86.5834L542 60L515.438 86.5834L525.229 96.3752L542 79.5903ZM575.549 93.5765L565.766 103.368L575.549 113.167L585.333 103.368L575.549 93.5765ZM542 127.153L525.229 110.368L515.438 120.16L542 146.737L568.562 120.16L558.771 110.368L542 127.153ZM542 113.167L551.784 103.368L542 93.5765L532.216 103.368L542 113.167ZM444.331 193.961V193.866C444.331 188.75 441.622 186.195 437.215 184.508C439.923 182.99 442.211 180.598 442.211 176.302V176.193C442.211 170.21 437.431 166.347 429.658 166.347H412V204.416H430.092C438.677 204.403 444.331 200.92 444.331 193.961ZM433.897 177.697C433.897 180.53 431.561 181.723 427.864 181.723H420.125V173.672H428.385C431.913 173.672 433.87 175.089 433.87 177.589L433.897 177.697ZM436.016 192.924C436.016 195.756 433.789 197.057 430.092 197.057H420.125V188.682H429.821C434.114 188.682 436.016 190.261 436.016 192.815V192.924ZM461.881 204.403V166.334H453.512V204.403H461.881ZM506.859 204.403V166.334H498.599V189.8L480.778 166.361H473.059V204.43H481.32V180.198L499.743 204.403H506.859ZM553.212 204.403L536.908 166.083H529.196L512.885 204.403H521.417L524.897 195.865H540.984L544.465 204.403H553.212ZM537.998 188.445H527.89L532.941 176.105L537.998 188.445ZM593.099 204.383V166.334H584.839V189.8L567.052 166.334H559.333V204.403H567.594V180.198L586.01 204.403L593.099 204.383ZM636.297 198.236L630.976 192.815C627.983 195.526 625.322 197.274 620.975 197.274C614.455 197.274 609.945 191.853 609.945 185.314V185.206C609.945 178.68 614.563 173.347 620.975 173.347C624.78 173.347 627.746 174.98 630.705 177.643L636.027 171.497C632.492 168.021 628.199 165.629 621.029 165.629C609.349 165.629 601.197 174.492 601.197 185.314V185.422C601.197 196.353 609.512 204.999 620.704 204.999C628.037 205.053 632.384 202.445 636.297 198.257V198.236ZM672 204.403V196.949H651.349V188.953H669.292V181.499H651.349V173.788H671.729V166.334H643.041V204.403H672Z" fill="#FBC900"/>
<path d="M343 107L374 139" stroke="#AFAFAF" stroke-width="3"/>
<path d="M374 107L343 139" stroke="#AFAFAF" stroke-width="3"/>
<path d="M79.0153 180.28H70.0553V175H94.4553V180.28H85.4953V203H79.0153V180.28Z" fill="#3375BB"/>
<path d="M100.593 184.32C101.34 183.28 102.34 182.493 103.593 181.96C104.873 181.427 106.34 181.16 107.993 181.16V186.92C107.3 186.867 106.833 186.84 106.593 186.84C104.806 186.84 103.406 187.347 102.393 188.36C101.38 189.347 100.873 190.84 100.873 192.84V203H94.6331V181.48H100.593V184.32Z" fill="#3375BB"/>
<path d="M131.14 181.48V203H125.22V200.44C124.393 201.373 123.406 202.093 122.26 202.6C121.113 203.08 119.873 203.32 118.54 203.32C115.713 203.32 113.473 202.507 111.82 200.88C110.166 199.253 109.34 196.84 109.34 193.64V181.48H115.58V192.72C115.58 196.187 117.033 197.92 119.94 197.92C121.433 197.92 122.633 197.44 123.54 196.48C124.446 195.493 124.9 194.04 124.9 192.12V181.48H131.14Z" fill="#3375BB"/>
<path d="M141.761 203.32C139.974 203.32 138.227 203.107 136.521 202.68C134.814 202.227 133.454 201.667 132.441 201L134.521 196.52C135.481 197.133 136.641 197.64 138.001 198.04C139.361 198.413 140.694 198.6 142.001 198.6C144.641 198.6 145.961 197.947 145.961 196.64C145.961 196.027 145.601 195.587 144.881 195.32C144.161 195.053 143.054 194.827 141.561 194.64C139.801 194.373 138.347 194.067 137.201 193.72C136.054 193.373 135.054 192.76 134.201 191.88C133.374 191 132.961 189.747 132.961 188.12C132.961 186.76 133.347 185.56 134.121 184.52C134.921 183.453 136.067 182.627 137.561 182.04C139.081 181.453 140.867 181.16 142.921 181.16C144.441 181.16 145.947 181.333 147.441 181.68C148.961 182 150.214 182.453 151.201 183.04L149.121 187.48C147.227 186.413 145.161 185.88 142.921 185.88C141.587 185.88 140.587 186.067 139.921 186.44C139.254 186.813 138.921 187.293 138.921 187.88C138.921 188.547 139.281 189.013 140.001 189.28C140.721 189.547 141.867 189.8 143.441 190.04C145.201 190.333 146.641 190.653 147.761 191C148.881 191.32 149.854 191.92 150.681 192.8C151.507 193.68 151.921 194.907 151.921 196.48C151.921 197.813 151.521 199 150.721 200.04C149.921 201.08 148.747 201.893 147.201 202.48C145.681 203.04 143.867 203.32 141.761 203.32Z" fill="#3375BB"/>
<path d="M167.251 201.96C166.637 202.413 165.877 202.76 164.971 203C164.091 203.213 163.157 203.32 162.171 203.32C159.611 203.32 157.624 202.667 156.211 201.36C154.824 200.053 154.131 198.133 154.131 195.6V186.76H150.811V181.96H154.131V176.72H160.371V181.96H165.731V186.76H160.371V195.52C160.371 196.427 160.597 197.133 161.051 197.64C161.531 198.12 162.197 198.36 163.051 198.36C164.037 198.36 164.877 198.093 165.571 197.56L167.251 201.96Z" fill="#3375BB"/>
<path d="M220.042 175L210.882 203H203.922L197.762 184.04L191.402 203H184.482L175.282 175H182.002L188.322 194.68L194.922 175H200.922L207.322 194.84L213.842 175H220.042Z" fill="#3375BB"/>
<path d="M227.897 181.16C231.231 181.16 233.791 181.96 235.577 183.56C237.364 185.133 238.257 187.52 238.257 190.72V203H232.417V200.32C231.244 202.32 229.057 203.32 225.857 203.32C224.204 203.32 222.764 203.04 221.537 202.48C220.337 201.92 219.417 201.147 218.777 200.16C218.137 199.173 217.817 198.053 217.817 196.8C217.817 194.8 218.564 193.227 220.057 192.08C221.577 190.933 223.911 190.36 227.057 190.36H232.017C232.017 189 231.604 187.96 230.777 187.24C229.951 186.493 228.711 186.12 227.057 186.12C225.911 186.12 224.777 186.307 223.657 186.68C222.564 187.027 221.631 187.507 220.857 188.12L218.617 183.76C219.791 182.933 221.191 182.293 222.817 181.84C224.471 181.387 226.164 181.16 227.897 181.16ZM227.417 199.12C228.484 199.12 229.431 198.88 230.257 198.4C231.084 197.893 231.671 197.16 232.017 196.2V194H227.737C225.177 194 223.897 194.84 223.897 196.52C223.897 197.32 224.204 197.96 224.817 198.44C225.457 198.893 226.324 199.12 227.417 199.12Z" fill="#3375BB"/>
<path d="M241.505 173.32H247.745V203H241.505V173.32Z" fill="#3375BB"/>
<path d="M251.136 173.32H257.376V203H251.136V173.32Z" fill="#3375BB"/>
<path d="M281.847 192.32C281.847 192.4 281.807 192.96 281.727 194H265.447C265.741 195.333 266.434 196.387 267.527 197.16C268.621 197.933 269.981 198.32 271.607 198.32C272.727 198.32 273.714 198.16 274.567 197.84C275.447 197.493 276.261 196.96 277.007 196.24L280.327 199.84C278.301 202.16 275.341 203.32 271.447 203.32C269.021 203.32 266.874 202.853 265.007 201.92C263.141 200.96 261.701 199.64 260.687 197.96C259.674 196.28 259.167 194.373 259.167 192.24C259.167 190.133 259.661 188.24 260.647 186.56C261.661 184.853 263.034 183.533 264.767 182.6C266.527 181.64 268.487 181.16 270.647 181.16C272.754 181.16 274.661 181.613 276.367 182.52C278.074 183.427 279.407 184.733 280.367 186.44C281.354 188.12 281.847 190.08 281.847 192.32ZM270.687 185.88C269.274 185.88 268.087 186.28 267.127 187.08C266.167 187.88 265.581 188.973 265.367 190.36H275.967C275.754 189 275.167 187.92 274.207 187.12C273.247 186.293 272.074 185.88 270.687 185.88Z" fill="#3375BB"/>
<path d="M297.482 201.96C296.869 202.413 296.109 202.76 295.202 203C294.322 203.213 293.389 203.32 292.402 203.32C289.842 203.32 287.855 202.667 286.442 201.36C285.055 200.053 284.362 198.133 284.362 195.6V186.76H281.042V181.96H284.362V176.72H290.602V181.96H295.962V186.76H290.602V195.52C290.602 196.427 290.829 197.133 291.282 197.64C291.762 198.12 292.429 198.36 293.282 198.36C294.269 198.36 295.109 198.093 295.802 197.56L297.482 201.96Z" fill="#3375BB"/>
<path d="M184.12 59.1873C198.495 71.193 214.98 70.4526 219.69 70.4526C218.66 138.732 210.81 125.192 184.12 144.338C157.43 125.192 149.629 138.732 148.599 70.4526C153.26 70.4526 169.745 71.193 184.12 59.1873Z" stroke="#3375BB" stroke-width="9" stroke-miterlimit="10" stroke-linecap="round" stroke-linejoin="round"/>
<path d="M76.5843 246C75.1453 246 73.845 245.697 72.6832 245.091C71.5347 244.485 70.6304 243.654 69.9703 242.597C69.3234 241.527 69 240.328 69 239C69 237.672 69.3234 236.48 69.9703 235.423C70.6304 234.353 71.5347 233.515 72.6832 232.909C73.845 232.303 75.1453 232 76.5843 232C78.0233 232 79.317 232.303 80.4656 232.909C81.6141 233.515 82.5184 234.353 83.1785 235.423C83.8386 236.48 84.1686 237.672 84.1686 239C84.1686 240.328 83.8386 241.527 83.1785 242.597C82.5184 243.654 81.6141 244.485 80.4656 245.091C79.317 245.697 78.0233 246 76.5843 246ZM76.5843 243.331C77.4028 243.331 78.1421 243.151 78.8022 242.79C79.4622 242.416 79.9771 241.901 80.3468 241.243C80.7296 240.586 80.921 239.838 80.921 239C80.921 238.162 80.7296 237.414 80.3468 236.757C79.9771 236.099 79.4622 235.59 78.8022 235.229C78.1421 234.855 77.4028 234.669 76.5843 234.669C75.7658 234.669 75.0265 234.855 74.3664 235.229C73.7064 235.59 73.1849 236.099 72.8021 236.757C72.4324 237.414 72.2476 238.162 72.2476 239C72.2476 239.838 72.4324 240.586 72.8021 241.243C73.1849 241.901 73.7064 242.416 74.3664 242.79C75.0265 243.151 75.7658 243.331 76.5843 243.331Z" fill="#AAAAAA"/>
<path d="M95.5302 234.746V238.323H101.946V240.837H95.5302V245.768H92.3222V232.232H102.798V234.746H95.5302Z" fill="#AAAAAA"/>
<path d="M113.92 234.746V238.323H120.336V240.837H113.92V245.768H110.712V232.232H121.188V234.746H113.92Z" fill="#AAAAAA"/>
<path d="M129.102 232.232H132.31V245.768H129.102V232.232Z" fill="#AAAAAA"/>
<path d="M147.976 246C146.564 246 145.283 245.703 144.134 245.11C142.999 244.505 142.101 243.673 141.441 242.616C140.794 241.546 140.471 240.341 140.471 239C140.471 237.659 140.794 236.46 141.441 235.403C142.101 234.333 142.999 233.502 144.134 232.909C145.283 232.303 146.57 232 147.996 232C149.197 232 150.28 232.206 151.244 232.619C152.22 233.031 153.039 233.624 153.699 234.398L151.64 236.254C150.702 235.197 149.541 234.669 148.154 234.669C147.296 234.669 146.531 234.855 145.857 235.229C145.184 235.59 144.656 236.099 144.273 236.757C143.903 237.414 143.719 238.162 143.719 239C143.719 239.838 143.903 240.586 144.273 241.243C144.656 241.901 145.184 242.416 145.857 242.79C146.531 243.151 147.296 243.331 148.154 243.331C149.541 243.331 150.702 242.797 151.64 241.727L153.699 243.583C153.039 244.369 152.22 244.969 151.244 245.381C150.267 245.794 149.177 246 147.976 246Z" fill="#AAAAAA"/>
<path d="M161.608 232.232H164.816V245.768H161.608V232.232Z" fill="#AAAAAA"/>
<path d="M182.977 242.867H176.541L175.314 245.768H172.027L178.205 232.232H181.373L187.571 245.768H184.205L182.977 242.867ZM181.967 240.489L179.769 235.307L177.571 240.489H181.967Z" fill="#AAAAAA"/>
<path d="M194.752 232.232H197.96V243.215H204.911V245.768H194.752V232.232Z" fill="#AAAAAA"/>
<path d="M223.797 232.232H230.094C231.599 232.232 232.926 232.516 234.074 233.083C235.236 233.637 236.134 234.424 236.767 235.442C237.414 236.46 237.738 237.646 237.738 239C237.738 240.354 237.414 241.54 236.767 242.558C236.134 243.576 235.236 244.369 234.074 244.936C232.926 245.491 231.599 245.768 230.094 245.768H223.797V232.232ZM229.935 243.196C231.322 243.196 232.424 242.822 233.242 242.075C234.074 241.314 234.49 240.289 234.49 239C234.49 237.711 234.074 236.692 233.242 235.945C232.424 235.184 231.322 234.804 229.935 234.804H227.005V243.196H229.935Z" fill="#AAAAAA"/>
<path d="M245.9 232.232H249.108V245.768H245.9V232.232Z" fill="#AAAAAA"/>
<path d="M267.506 238.787H270.437V244.279C269.685 244.833 268.813 245.259 267.823 245.555C266.833 245.852 265.836 246 264.833 246C263.394 246 262.1 245.703 260.952 245.11C259.803 244.505 258.899 243.673 258.239 242.616C257.592 241.546 257.269 240.341 257.269 239C257.269 237.659 257.592 236.46 258.239 235.403C258.899 234.333 259.81 233.502 260.972 232.909C262.133 232.303 263.44 232 264.892 232C266.107 232 267.209 232.2 268.199 232.599C269.19 232.999 270.021 233.579 270.695 234.34L268.635 236.196C267.645 235.178 266.45 234.669 265.051 234.669C264.166 234.669 263.381 234.849 262.694 235.21C262.008 235.571 261.473 236.08 261.09 236.738C260.708 237.395 260.516 238.149 260.516 239C260.516 239.838 260.708 240.586 261.09 241.243C261.473 241.901 262.001 242.416 262.675 242.79C263.361 243.151 264.14 243.331 265.011 243.331C265.935 243.331 266.767 243.138 267.506 242.751V238.787Z" fill="#AAAAAA"/>
<path d="M279.16 232.232H282.368V245.768H279.16V232.232Z" fill="#AAAAAA"/>
<path d="M294.271 234.785H289.836V232.232H301.915V234.785H297.479V245.768H294.271V234.785Z" fill="#AAAAAA"/>
<path d="M317.817 242.867H311.381L310.153 245.768H306.866L313.044 232.232H316.213L322.411 245.768H319.044L317.817 242.867ZM316.807 240.489L314.609 235.307L312.411 240.489H316.807Z" fill="#AAAAAA"/>
<path d="M329.592 232.232H332.8V243.215H339.75V245.768H329.592V232.232Z" fill="#AAAAAA"/>
<path d="M379.587 232.232L375.052 245.768H371.607L368.557 236.602L365.408 245.768H361.983L357.428 232.232H360.755L363.884 241.746L367.151 232.232H370.121L373.29 241.823L376.518 232.232H379.587Z" fill="#AAAAAA"/>
<path d="M395.785 242.867H389.35L388.122 245.768H384.835L391.013 232.232H394.181L400.379 245.768H397.013L395.785 242.867ZM394.775 240.489L392.577 235.307L390.379 240.489H394.775Z" fill="#AAAAAA"/>
<path d="M407.56 232.232H410.768V243.215H417.719V245.768H407.56V232.232Z" fill="#AAAAAA"/>
<path d="M425.254 232.232H428.462V243.215H435.413V245.768H425.254V232.232Z" fill="#AAAAAA"/>
<path d="M453.681 243.254V245.768H442.948V232.232H453.423V234.746H446.136V237.685H452.572V240.122H446.136V243.254H453.681Z" fill="#AAAAAA"/>
<path d="M464.847 234.785H460.411V232.232H472.491V234.785H468.055V245.768H464.847V234.785Z" fill="#AAAAAA"/>
<path d="M498.023 246C496.584 246 495.284 245.697 494.122 245.091C492.974 244.485 492.069 243.654 491.409 242.597C490.762 241.527 490.439 240.328 490.439 239C490.439 237.672 490.762 236.48 491.409 235.423C492.069 234.353 492.974 233.515 494.122 232.909C495.284 232.303 496.584 232 498.023 232C499.462 232 500.756 232.303 501.905 232.909C503.053 233.515 503.957 234.353 504.618 235.423C505.278 236.48 505.608 237.672 505.608 239C505.608 240.328 505.278 241.527 504.618 242.597C503.957 243.654 503.053 244.485 501.905 245.091C500.756 245.697 499.462 246 498.023 246ZM498.023 243.331C498.842 243.331 499.581 243.151 500.241 242.79C500.901 242.416 501.416 241.901 501.786 241.243C502.169 240.586 502.36 239.838 502.36 239C502.36 238.162 502.169 237.414 501.786 236.757C501.416 236.099 500.901 235.59 500.241 235.229C499.581 234.855 498.842 234.669 498.023 234.669C497.205 234.669 496.466 234.855 495.805 235.229C495.145 235.59 494.624 236.099 494.241 236.757C493.871 237.414 493.687 238.162 493.687 239C493.687 239.838 493.871 240.586 494.241 241.243C494.624 241.901 495.145 242.416 495.805 242.79C496.466 243.151 497.205 243.331 498.023 243.331Z" fill="#AAAAAA"/>
<path d="M516.969 234.746V238.323H523.385V240.837H516.969V245.768H513.761V232.232H524.237V234.746H516.969Z" fill="#AAAAAA"/>
<path d="M553.68 238.729C554.472 238.974 555.093 239.387 555.542 239.967C555.991 240.534 556.215 241.237 556.215 242.075C556.215 243.261 555.74 244.176 554.789 244.82C553.852 245.452 552.479 245.768 550.67 245.768H543.502V232.232H550.274C551.964 232.232 553.258 232.548 554.156 233.18C555.066 233.811 555.522 234.669 555.522 235.751C555.522 236.409 555.357 236.995 555.027 237.511C554.71 238.027 554.261 238.433 553.68 238.729ZM546.69 234.591V237.782H549.878C550.67 237.782 551.271 237.646 551.68 237.376C552.09 237.105 552.294 236.705 552.294 236.177C552.294 235.648 552.09 235.255 551.68 234.997C551.271 234.727 550.67 234.591 549.878 234.591H546.69ZM550.433 243.409C551.278 243.409 551.911 243.273 552.334 243.003C552.769 242.732 552.987 242.313 552.987 241.746C552.987 240.624 552.136 240.064 550.433 240.064H546.69V243.409H550.433Z" fill="#AAAAAA"/>
<path d="M564.386 232.232H567.594V245.768H564.386V232.232Z" fill="#AAAAAA"/>
<path d="M589.34 232.232V245.768H586.706L579.795 237.55V245.768H576.627V232.232H579.28L586.171 240.45V232.232H589.34Z" fill="#AAAAAA"/>
<path d="M607.491 242.867H601.055L599.828 245.768H596.54L602.719 232.232H605.887L612.085 245.768H608.719L607.491 242.867ZM606.481 240.489L604.283 235.307L602.085 240.489H606.481Z" fill="#AAAAAA"/>
<path d="M631.979 232.232V245.768H629.345L622.434 237.55V245.768H619.266V232.232H621.92L628.811 240.45V232.232H631.979Z" fill="#AAAAAA"/>
<path d="M647.635 246C646.223 246 644.942 245.703 643.793 245.11C642.658 244.505 641.76 243.673 641.1 242.616C640.454 241.546 640.13 240.341 640.13 239C640.13 237.659 640.454 236.46 641.1 235.403C641.76 234.333 642.658 233.502 643.793 232.909C644.942 232.303 646.229 232 647.655 232C648.856 232 649.939 232.206 650.903 232.619C651.879 233.031 652.698 233.624 653.358 234.398L651.299 236.254C650.361 235.197 649.2 234.669 647.813 234.669C646.955 234.669 646.19 234.855 645.516 235.229C644.843 235.59 644.315 236.099 643.932 236.757C643.562 237.414 643.378 238.162 643.378 239C643.378 239.838 643.562 240.586 643.932 241.243C644.315 241.901 644.843 242.416 645.516 242.79C646.19 243.151 646.955 243.331 647.813 243.331C649.2 243.331 650.361 242.797 651.299 241.727L653.358 243.583C652.698 244.369 651.879 244.969 650.903 245.381C649.926 245.794 648.836 246 647.635 246Z" fill="#AAAAAA"/>
<path d="M672 243.254V245.768H661.267V232.232H671.743V234.746H664.455V237.685H670.891V240.122H664.455V243.254H672Z" fill="#AAAAAA"/>
</svg>
