<svg width="32" height="33" viewBox="0 0 32 33" fill="none" xmlns="http://www.w3.org/2000/svg">
<path d="M16 32.7647C24.8366 32.7647 32 25.6013 32 16.7647C32 7.92814 24.8366 0.764694 16 0.764694C7.16344 0.764694 0 7.92814 0 16.7647C0 25.6013 7.16344 32.7647 16 32.7647Z" fill="#F0B90B"/>
<path fill-rule="evenodd" clip-rule="evenodd" d="M16.0002 5.63423L22.8415 12.4757L20.3259 14.9912L16.0002 10.6657L11.6772 14.989L9.16164 12.4736L16.0002 5.63423ZM13.4506 16.7687L16.0002 14.2116L18.5526 16.766L16.0002 19.3188L13.4506 16.7687ZM22.0998 16.7649L24.6154 14.2489L27.1304 16.7649L24.6154 19.2804L22.0998 16.7649ZM4.86954 16.7649L7.38459 14.2489L9.90017 16.7649L7.38459 19.2804L4.86954 16.7649ZM16.0002 22.8642L20.3259 18.5392L22.8415 21.0547L16.0002 27.8951L9.15791 21.0536L11.6772 18.5408L16.0002 22.8642Z" fill="white"/>
</svg>
